<svg id="Layer_2" data-name="Layer 2" xmlns="http://www.w3.org/2000/svg" xmlns:xlink="http://www.w3.org/1999/xlink" viewBox="0 0 1024 1024"><defs><style>.cls-1{fill:url(#linear-gradient);}.cls-2{fill:url(#linear-gradient-2);}</style><linearGradient id="linear-gradient" x1="654.6" y1="284.64" x2="654.6" y2="739.36" gradientUnits="userSpaceOnUse"><stop offset="0" stop-color="#3c9"/><stop offset="1" stop-color="#00bfa9"/></linearGradient><linearGradient id="linear-gradient-2" x1="369.37" y1="284.64" x2="369.37" y2="739.36" gradientUnits="userSpaceOnUse"><stop offset="0" stop-color="#c266cc"/><stop offset="1" stop-color="#6870c4"/></linearGradient></defs><title>Vocky logotype</title><path class="cls-1" d="M849.45,410.79A372.57,372.57,0,0,0,645.61,739.36H459.74a549.8,549.8,0,0,1,8.49-93.68A559.28,559.28,0,0,1,512,506.52a14.21,14.21,0,0,1,.62-1.42A557.2,557.2,0,0,1,699.08,284.64Z"/><path class="cls-2" d="M564.2,739.36H378.39a371.8,371.8,0,0,0-5.7-61.4,369.3,369.3,0,0,0-29.93-94.3A372.12,372.12,0,0,0,174.55,410.79L324.92,284.64A557.2,557.2,0,0,1,511.35,505.09c.25.5.43.93.68,1.42a559.08,559.08,0,0,1,43.68,139.16A562,562,0,0,1,564.2,739.36Z"/></svg>